<svg xmlns="http://www.w3.org/2000/svg" width="31" height="31" viewBox="0 0 31 31">
    <g>
        <path d="M27.324 15.112c0-4.035-1.421-7.828-4.002-10.68-2.58-2.854-6.011-4.425-9.66-4.425-3.65 0-7.08 1.571-9.66 4.424C1.421 7.284 0 11.077 0 15.111v.886h27.324m-25.697-1.77c.107-1.785.533-3.474 1.214-5l1.778 1.135.8-1.533-1.775-1.134c.877-1.444 2.003-2.689 3.31-3.66L7.978 6l1.386-.885L8.34 3.148c1.38-.753 2.908-1.223 4.522-1.34v2.27h1.601v-2.27c1.614.117 3.143.587 4.523 1.34l-1.027 1.966L19.345 6l1.025-1.963c1.306.97 2.432 2.215 3.31 3.66l-1.776 1.133.8 1.533 1.778-1.135c.682 1.526 1.108 3.215 1.214 5 .02.929.02 1.519 0 1.769-10.385.035-19.098 0-24.069 0-.01-.392-.01-.982 0-1.77z" transform="translate(2 5)"/>
        <path stroke="#000" stroke-width=".8" d="M10.794 20.425c-.145-.002-.285-.06-.395-.166l-3.554-3.41c-.252-.242-.274-.66-.05-.932.225-.273.611-.299.863-.057l3.075 2.95 6.997-9.374c.212-.284.596-.33.86-.1.262.228.302.644.09.928l-7.4 9.915c-.105.14-.258.229-.425.244-.02.002-.04.003-.061.002z" transform="translate(2 5)"/>
    </g>
</svg>
