<svg xmlns="http://www.w3.org/2000/svg" xmlns:xlink="http://www.w3.org/1999/xlink" width="240" height="123" viewBox="0 0 240 123">
    <defs>
        <linearGradient id="prefix__c" x1="80.175%" x2="17.299%" y1="11.413%" y2="76.617%">
            <stop offset="0%" stop-color="#FF8785"/>
            <stop offset="33.631%" stop-color="#FFDD87"/>
            <stop offset="49.845%" stop-color="#FFF088"/>
            <stop offset="75.148%" stop-color="#D1EF8B"/>
            <stop offset="100%" stop-color="#15EE9B"/>
        </linearGradient>
        <linearGradient id="prefix__f" x1="90.785%" x2="18.785%" y1="27.261%" y2="87.544%">
            <stop offset="0%" stop-color="#15EE9B"/>
            <stop offset="100%" stop-color="#BEFFA4"/>
        </linearGradient>
        <path id="prefix__a" d="M44.5 89C19.923 89 0 69.077 0 44.5S19.923 0 44.5 0 89 19.923 89 44.5 69.077 89 44.5 89zm0-8.19c20.06 0 36.322-16.23 36.322-36.25S64.56 8.31 44.5 8.31c-20.06 0-36.322 16.23-36.322 36.25S24.44 80.81 44.5 80.81z"/>
        <path id="prefix__d" d="M32 64C14.327 64 0 49.673 0 32 0 14.327 14.327 0 32 0c17.673 0 32 14.327 32 32 0 17.673-14.327 32-32 32zm.207-2.35c16.34 0 29.586-13.213 29.586-29.512S48.547 2.626 32.207 2.626C15.867 2.626 2.62 15.84 2.62 32.138c0 16.3 13.246 29.512 29.586 29.512z"/>
    </defs>
    <g fill="none" fill-rule="evenodd">
        <rect width="240" height="123" fill="#FFF" rx="10"/>
        <g transform="translate(22 16)">
            <g transform="translate(109)">
                <mask id="prefix__b" fill="#fff">
                    <use xlink:href="#prefix__a"/>
                </mask>
                <use fill="#F7F9F9" xlink:href="#prefix__a"/>
                <path fill="#EBEFF0" d="M70.478 22.611L83.461 16C95.821 45.062 95 65.115 81 76.157l-11.722-8.946c7.416-8.045 9.824-17.226 7.222-27.544-2.602-10.319-4.609-16.004-6.022-17.056z" mask="url(#prefix__b)"/>
                <path fill="url(#prefix__c)" d="M64.024 2.723l10.704-9.317c20.325 43.922 12.718 70.238-22.822 78.95-35.54 8.712-53.813 2.448-54.82-18.793l15.342-8c8.738 9.1 20.455 11.767 35.15 8 14.695-3.767 20.177-20.714 16.446-50.84z" mask="url(#prefix__b)" transform="rotate(-180 41.453 34.781)"/>
                <ellipse cx="14.089" cy="71.095" fill="#FF8785" mask="url(#prefix__b)" rx="4.089" ry="4.095"/>
                <circle cx="76.5" cy="19.689" r="4.5" fill="#15EE9B" mask="url(#prefix__b)"/>
                <circle cx="75" cy="71" r="4" fill="#EBEFF0" mask="url(#prefix__b)"/>
            </g>
            <text fill="#141516" font-family="Montserrat-SemiBold, Montserrat" font-size="10" font-weight="500">
                <tspan x="0" y="13">Your Credit score </tspan> <tspan x="0" y="26">looks</tspan>
            </text>
            <text fill="#15EE9B" font-family="Montserrat-Bold, Montserrat" font-size="10" font-weight="bold">
                <tspan x="32" y="26">GOOD!</tspan>
            </text>
            <text fill="#666" font-family="Montserrat-Regular, Montserrat" font-size="8">
                <tspan x="0" y="87">Experian</tspan>
            </text>
            <text fill="#666" font-family="Montserrat-Regular, Montserrat" font-size="8">
                <tspan x="0" y="74">Updated a month ago</tspan>
            </text>
            <g transform="translate(121.597 12.62)">
                <mask id="prefix__e" fill="#fff">
                    <use xlink:href="#prefix__d"/>
                </mask>
                <use fill="#EDF1F2" xlink:href="#prefix__d"/>
                <path fill="#FFF" d="M5.976 55.975s5.929-2.008 3.678-5.798c-2.25-3.79 14.733 7.89 20.725 6.792 3.995-.733 11.695-2.409 23.1-5.028-.106.59-.208 1.054-.303 1.392-.244.86.902 1.556 2.148.819 1.833-1.086-9.847 12.352-22.421 12.352-12.575 0-26.927-10.529-26.927-10.529z" mask="url(#prefix__e)"/>
                <path fill="url(#prefix__f)" d="M8.499 54.01c.47.396.85.756 1.575.756.724 0 1.444-.727 1.157-1.411-.287-.684-.507-.853-.685-1.395 0-3.073-6.254-38.325 12.944-41.31 12.799-1.99 21.503.067 26.111 6.172l10.085-7.849c-11.325-7.086-21.325-10.63-30-10.63-13.01 0-32.283 11.025-32.283 30.537S7.22 52.934 8.499 54.01z" mask="url(#prefix__e)"/>
            </g>
            <text fill="#15EE9B" font-family="Montserrat-SemiBold, Montserrat" font-size="15" font-weight="500">
                <tspan x="139" y="48">650</tspan>
            </text>
            <text fill="#666" font-family="Montserrat-Medium, Montserrat" font-size="5" font-weight="400">
                <tspan x="140" y="56">out of 850</tspan>
            </text>
            <circle cx="177.409" cy="25.414" r="3.5" fill="#15EE9B"/>
        </g>
    </g>
</svg>
