<svg xmlns="http://www.w3.org/2000/svg" width="31" height="31" viewBox="0 0 31 31">
    <g stroke="#000" stroke-width=".1">
        <path d="M21.339 3.661C18.978 1.301 15.839 0 12.5 0 9.161 0 6.022 1.3 3.661 3.661 1.301 6.022 0 9.161 0 12.5c0 3.339 1.3 6.478 3.661 8.839C6.022 23.699 9.161 25 12.5 25c3.339 0 6.478-1.3 8.839-3.661C23.699 18.978 25 15.839 25 12.5c0-3.339-1.3-6.478-3.661-8.839zM12.5 23.511c-6.072 0-11.012-4.939-11.012-11.011 0-6.072 4.94-11.012 11.012-11.012S23.512 6.428 23.512 12.5 18.572 23.512 12.5 23.512z" transform="translate(3 3)"/>
        <path d="M9.815 9.128c-1.236-1.222-3.248-1.222-4.484 0-.295.291-.295.764 0 1.055.295.291.773.291 1.067 0 .648-.64 1.702-.64 2.35 0 .147.146.34.218.533.218.194 0 .387-.072.534-.218.295-.291.295-.764 0-1.055zM19.67 9.128c-1.237-1.222-3.249-1.222-4.485 0-.295.291-.295.764 0 1.055.295.291.773.291 1.068 0 .647-.64 1.7-.64 2.349 0 .147.146.34.218.534.218.193 0 .386-.072.533-.218.295-.291.295-.764 0-1.055zM19.15 13.139H6.033c-.409 0-.74.33-.74.739 0 4.02 3.274 7.29 7.3 7.29 4.024 0 7.299-3.27 7.299-7.29 0-.409-.332-.74-.74-.74zm-6.559 6.551c-2.958 0-5.408-2.216-5.773-5.074h11.546C18 17.474 15.55 19.69 12.591 19.69z" transform="translate(3 3)"/>
    </g>
</svg>
