<svg xmlns="http://www.w3.org/2000/svg" width="30" height="31" viewBox="0 0 30 31">
    <g fill="none" fill-rule="evenodd">
        <path stroke="#000" stroke-width="1.7" d="M11.25 22.5C5.037 22.5 0 17.463 0 11.25S5.037 0 11.25 0 22.5 5.037 22.5 11.25c0 2.946-1.133 5.628-2.986 7.633-.707.765 2.942 4.494 2.048 5.039-.72.44-5.953-2.262-6.767-1.992-1.114.37-2.306.57-3.545.57z" transform="translate(4 3)"/>
        <path fill="#000" fill-rule="nonzero" d="M9.248 12.295l-.396 2.431c-.032.193.174.338.345.243l2.06-1.14 2.058 1.14c.17.094.377-.048.345-.243l-.396-2.43 1.675-1.72c.133-.136.057-.367-.132-.396l-2.306-.353-1.033-2.204c-.077-.165-.347-.165-.424 0L10.01 9.827l-2.306.353c-.19.029-.265.26-.132.396l1.675 1.72z" transform="translate(4 3)"/>
    </g>
</svg>
