<svg xmlns="http://www.w3.org/2000/svg" width="30" height="31" viewBox="0 0 30 31">
    <g fill-rule="evenodd">
        <text font-family="Montserrat-Bold, Montserrat" font-size="10" font-weight="bold" transform="translate(4.608 2.566)">
            <tspan x="2.471" y="16">ISO</tspan>
        </text>
        <path fill-rule="nonzero" stroke="#000" stroke-width=".3" d="M21.93 18.5c-.586 1.063-1.332 2.046-2.226 2.922-.212.208-.432.409-.658.6-.579.492-1.203.923-1.858 1.3-.113.065-.224.136-.339.198-.041.022-.081.04-.122.061-.091.048-.183.095-.275.14-.017.01-.034.016-.051.024-.211.102-.42.2-.628.286l-.002.001s0 0 0 0c-.032.013-.064.024-.095.035-.205.082-.387.152-.557.213l-.025.009c-.159.057-.307.107-.453.152-.063.02-.13.035-.196.051l-.107.027c-.29.081-.58.162-.877.223-.132.026-.267.045-.402.063l-.368.057c-.15.025-.303.05-.457.066 0 0 0 0 0 0-.423.042-.85.064-1.267.064-.417 0-.843-.022-1.266-.064-.158-.016-.313-.042-.468-.068l-.325-.05-.028-.004c-.08-.01-.159-.025-.239-.038-.055-.009-.111-.015-.166-.026l-.016-.004c-.29-.06-.574-.138-.858-.217l-.005-.002h-.001l-.106-.027c-.066-.016-.133-.032-.198-.052-.168-.052-.342-.112-.525-.179l-.044-.014c-.135-.05-.277-.106-.427-.167h-.002l-.027-.01c-.046-.016-.076-.027-.102-.038h-.002 0v-.001l-.006-.002c-.22-.092-.442-.193-.667-.303-.128-.063-.256-.129-.383-.196l-.01-.006-.01-.004-.002-.002c-1.042-.557-2.002-1.262-2.854-2.096-.894-.875-1.64-1.86-2.225-2.922H1.21c.4.646.868 1.256 1.4 1.822.08-.073.167-.14.25-.211.077-.066.154-.132.233-.196.21-.17.426-.334.649-.49.034-.025.067-.052.102-.076.259-.178.526-.346.8-.506.078-.045.158-.087.237-.13.123-.07.245-.142.372-.207l-.002-.006h2.93c-.202.052-.402.11-.601.173l-.177.056c-.278.092-.553.196-.826.31l-.058.026.026.08.083.228c.038.106.078.21.118.313.03.075.059.149.09.222.04.1.083.198.126.295.03.07.061.14.092.207.047.1.095.198.143.295.03.059.058.119.088.177.064.123.13.242.197.359l.045.081c.081.14.164.274.25.404.03.046.06.089.091.133.057.084.114.167.173.246.036.049.072.094.108.14.055.072.11.141.166.208l.115.132c.057.064.114.126.172.186.038.039.075.078.113.115.063.061.126.118.19.174l.102.091c.084.07.168.134.253.195.015.01.03.023.045.034.1.07.201.133.304.19.029.017.058.03.087.045.074.039.148.076.222.108l.112.044c.068.026.136.05.204.07.039.012.079.023.118.033.031.008.062.013.093.02V18.5h1.042v5.39c.03-.008.062-.012.093-.02.04-.01.08-.02.119-.033.068-.02.135-.044.203-.07.037-.015.075-.028.112-.044.074-.032.148-.07.221-.108.03-.015.06-.028.089-.045.102-.057.203-.12.303-.19.016-.01.03-.023.046-.034.084-.061.168-.125.252-.195l.103-.091c.063-.056.126-.113.189-.174.038-.037.076-.076.113-.115.058-.06.116-.122.172-.186.039-.043.077-.087.115-.132.056-.067.111-.136.166-.207.036-.047.073-.093.108-.141.059-.08.116-.162.173-.246.03-.045.062-.087.092-.133.084-.13.168-.264.25-.404l.045-.082c.067-.116.132-.235.196-.358l.089-.178c.048-.097.095-.194.142-.294l.093-.207c.042-.096.085-.195.126-.295l.09-.223c.04-.102.079-.205.117-.31.028-.077.056-.153.083-.232.01-.026.018-.052.026-.078l-.057-.026c-.274-.114-.55-.218-.828-.31-.058-.02-.116-.037-.173-.055-.2-.063-.401-.122-.603-.174h2.93l-.002.006c.13.066.253.14.378.21.076.042.153.082.228.126.275.16.544.329.804.508.031.022.06.046.091.067.227.16.447.326.661.5.077.062.152.127.228.191.084.072.171.14.254.214.53-.566.998-1.176 1.398-1.822h1.207zm.004-12h-1.206c-.4-.649-.87-1.262-1.403-1.83-.084.075-.172.144-.257.216-.074.063-.148.126-.223.187-.216.175-.438.344-.667.505-.03.02-.057.043-.087.063-.259.179-.527.347-.802.507-.078.046-.16.088-.24.133-.122.068-.242.14-.368.204l.004.015h-2.966c.213-.054.425-.116.636-.183l.174-.054c.279-.093.555-.196.828-.311l.057-.025-.026-.08-.083-.23c-.038-.105-.077-.209-.117-.31l-.09-.223c-.041-.1-.084-.199-.126-.296l-.093-.207c-.047-.1-.094-.196-.142-.293l-.089-.178c-.064-.123-.13-.242-.196-.358l-.045-.083c-.082-.14-.166-.273-.25-.403-.03-.046-.061-.089-.092-.133-.057-.084-.114-.167-.173-.246-.035-.049-.072-.095-.108-.142-.055-.07-.11-.139-.166-.205-.038-.046-.076-.09-.115-.134-.057-.063-.114-.125-.17-.184-.04-.04-.077-.08-.116-.117-.062-.06-.124-.117-.187-.172l-.104-.092c-.083-.07-.167-.133-.25-.193l-.048-.036c-.1-.07-.201-.133-.303-.19-.03-.017-.06-.03-.09-.046-.073-.038-.146-.075-.22-.107-.037-.016-.075-.03-.113-.044-.067-.026-.134-.05-.202-.07l-.12-.033c-.03-.008-.061-.013-.092-.02V6.5h-1.042V1.103c-.03.006-.061.011-.092.019-.04.01-.08.02-.12.033-.067.02-.135.044-.202.07-.038.014-.075.028-.113.044-.074.032-.147.069-.22.107-.03.016-.06.029-.09.046-.102.057-.203.12-.303.19-.016.01-.031.024-.047.035-.084.06-.168.125-.25.194-.035.029-.07.06-.104.091-.063.056-.126.113-.188.173-.039.038-.077.077-.115.117-.057.06-.114.12-.17.184-.04.044-.078.088-.116.134-.056.066-.111.135-.166.206l-.108.14c-.058.08-.116.162-.173.246-.03.045-.062.088-.092.134-.085.13-.168.264-.25.403l-.044.082c-.067.116-.133.236-.197.36-.03.057-.059.117-.088.176-.048.097-.096.194-.143.294l-.092.207c-.043.097-.086.196-.127.296l-.09.221c-.04.103-.079.208-.118.315l-.082.226-.026.08.058.026c.273.115.548.218.826.31.058.02.118.037.177.056.21.066.422.128.635.182H5.25c0-.005.002-.01.004-.015-.127-.065-.249-.137-.372-.206-.08-.044-.159-.086-.237-.13-.273-.16-.54-.328-.8-.506-.035-.025-.068-.052-.103-.076-.222-.157-.438-.32-.649-.49-.078-.064-.153-.13-.23-.194-.084-.071-.171-.14-.253-.213-.533.568-1.003 1.181-1.404 1.83H0c.586-1.066 1.334-2.053 2.23-2.93C4.581 1.268 7.684 0 10.967 0c3.283 0 6.386 1.268 8.737 3.57.897.877 1.644 1.864 2.23 2.93zm-3.69 14.83c.07-.059.142-.117.212-.178.037-.032.072-.067.109-.1-.065-.057-.127-.118-.194-.174l-.18-.15c-.219-.177-.443-.35-.676-.51-.008-.006-.016-.01-.024-.017-.227-.156-.463-.302-.702-.443-.068-.04-.136-.078-.205-.117-.073-.04-.15-.077-.224-.117l-.02.052c-.03.084-.06.165-.092.248-.049.132-.098.264-.15.392-.034.085-.07.166-.105.25-.05.119-.102.238-.154.353l-.118.247c-.053.108-.106.215-.16.32-.042.08-.085.159-.129.237-.054.099-.109.196-.165.29-.045.078-.092.154-.139.228-.056.09-.112.177-.17.262-.049.074-.099.145-.149.216-.057.08-.115.158-.174.234-.053.068-.105.136-.159.201-.059.072-.118.14-.178.209-.056.063-.111.125-.168.185l-.057.064c.043-.012.087-.022.131-.033.044-.01.087-.02.13-.033h.001c.278-.086.57-.192.917-.332h.001l.001-.001.083-.03c.085-.036.164-.073.246-.11.117-.05.234-.102.35-.159.12-.058.24-.117.357-.179l.049-.025h.002c.063-.034.123-.072.185-.107.156-.087.311-.175.463-.27.089-.055.175-.114.262-.171.126-.083.251-.167.373-.254.084-.06.165-.121.247-.183.126-.096.25-.194.372-.295zm-13.521.759c.068.044.135.091.204.134.213.132.429.26.65.378l.005.003.012.006h.001l.002.001.035.018c.124.065.247.127.37.186.185.09.372.176.558.254 0 0 0 0 0 0l.12.044c.158.063.3.118.439.169.168.061.328.116.48.163h.002c.042.014.086.024.13.034.043.01.087.021.13.033-.02-.02-.038-.044-.058-.064-.056-.06-.111-.122-.167-.185-.06-.068-.119-.136-.178-.208-.054-.066-.107-.134-.16-.203-.058-.076-.115-.153-.172-.232-.05-.071-.102-.145-.152-.22-.056-.083-.11-.168-.165-.255-.049-.077-.097-.155-.144-.236-.054-.09-.107-.183-.159-.278-.045-.083-.091-.166-.136-.252-.051-.098-.1-.2-.15-.301-.043-.088-.086-.175-.127-.265-.05-.109-.098-.222-.146-.334-.038-.089-.076-.176-.113-.267-.05-.124-.097-.252-.145-.38-.032-.085-.065-.17-.096-.257l-.019-.05c-.074.039-.15.075-.224.116l-.205.117c-.238.14-.47.285-.696.44l-.03.02c-.233.161-.456.333-.675.51l-.182.151c-.066.056-.128.116-.192.174.036.032.07.066.107.097.07.061.142.12.214.18.125.103.253.204.383.303.074.056.149.112.225.167.139.1.28.195.424.289zM18.57 3.935c-1.314-1.17-2.853-2.008-4.513-2.472l.069.076c.054.057.108.117.161.178.063.07.125.142.186.216.052.064.103.128.154.195.06.078.12.158.18.241l.146.211c.058.086.115.175.172.265l.14.228c.055.093.109.19.163.287.044.08.089.161.132.244.053.101.104.206.155.31.042.086.083.171.124.26.05.11.1.223.148.337.037.089.076.176.112.267.05.123.097.25.145.377.032.087.066.172.097.261l.02.051c.072-.038.147-.074.218-.114.072-.04.144-.08.214-.122.234-.138.464-.28.685-.433l.039-.025c.233-.161.457-.333.675-.51l.178-.148c.068-.058.133-.12.2-.18zM7.81 1.538c.022-.024.044-.051.068-.075-1.66.464-3.2 1.303-4.513 2.472.067.06.131.122.2.18.059.05.118.1.177.148.22.177.444.35.678.511.008.006.017.01.025.017.227.156.462.302.702.443.066.04.134.077.201.115.074.041.151.078.226.118l.019-.05c.032-.09.065-.176.098-.264.047-.126.094-.252.143-.374.038-.093.077-.183.116-.273.047-.111.095-.222.144-.33.042-.092.086-.181.13-.27.049-.1.097-.2.147-.296.047-.089.094-.175.142-.262.05-.09.1-.18.152-.267.05-.084.1-.166.151-.247.053-.083.106-.165.16-.245.052-.078.105-.154.158-.228.056-.077.111-.153.168-.226.054-.07.108-.14.163-.207.06-.071.119-.14.179-.208.054-.062.11-.123.165-.182z" transform="translate(4.608 2.566)"/>
    </g>
</svg>
