<svg xmlns="http://www.w3.org/2000/svg" width="30" height="30" viewBox="0 0 30 30">
    <g>
        <path d="M15.5 3C8.608 3 3 8.608 3 15.5S8.608 28 15.5 28 28 22.392 28 15.5 22.392 3 15.5 3zm0 23.438c-6.03 0-10.938-4.907-10.938-10.938C4.563 9.469 9.47 4.562 15.5 4.562S26.438 9.47 26.438 15.5c0 6.031-4.908 10.938-10.938 10.938z"/>
        <path d="M19.406 12.375h-.86c-.118-.581-.377-1.106-.723-1.563h1.583c.431 0 .782-.35.782-.78 0-.432-.35-.782-.782-.782h-7.812c-.431 0-.781.35-.781.781 0 .431.35.781.78.781h3.126c1.017 0 1.876.655 2.2 1.563h-5.325c-.431 0-.781.35-.781.781 0 .431.35.781.78.781h5.326c-.324.908-1.183 1.563-2.2 1.563h-3.125c-.102 0-.203.02-.299.06-.19.08-.343.23-.423.423-.08.19-.08.406 0 .597.039.097.097.183.17.254l6.249 6.249c.153.153.353.23.553.23.2 0 .4-.077.553-.229.305-.304.305-.8 0-1.104l-4.917-4.918h1.239c1.887 0 3.464-1.343 3.826-3.125h.861c.431 0 .782-.35.782-.78 0-.432-.35-.782-.782-.782z"/>
    </g>
</svg>
