<svg xmlns="http://www.w3.org/2000/svg" width="30" height="31" viewBox="0 0 30 31">
    <path d="M25.663 13.693c0-1.441-1.23-2.613-2.744-2.613h-4.974c.77-1.328 1.18-2.582 1.18-4.313v-.28c0-.931-.378-1.81-1.064-2.472-.686-.663-1.601-1.036-2.578-1.051h-.028c-.946 0-1.774.717-1.852 1.61-.37 4.26-3.63 6.456-6.514 7.791-.84.287-1.422.43-1.744.43v9.37c1.073 0 1.455.377 1.455.377C9.918 23.832 11.577 27 14.689 27c.531 0 1.075-.005 1.634-.01.618-.005 1.257-.011 1.927-.011h2.768c1.513 0 2.743-1.172 2.743-2.613 0-.484-.139-.938-.38-1.328.787-.46 1.314-1.287 1.314-2.23 0-.484-.139-.938-.381-1.328.788-.46 1.315-1.287 1.315-2.23 0-.678-.273-1.297-.72-1.762.467-.468.754-1.1.754-1.795zm-4.611 2.612H22.885c.548 0 .993.424.993.945 0 .521-.445.945-.992.945h-1.834c-.484 0-.876.374-.876.834 0 .46.392.834.876.834h.9c.547 0 .992.424.992.945 0 .521-.445.945-.992.945h-.934c-.484 0-.876.374-.876.834 0 .46.393.834.876.834.547 0 .992.424.992.945 0 .521-.445.945-.992.945H18.25c-.679 0-1.322.006-1.944.011-3.903.036-5.72-2.938-9.206-4.48v-6.63l.28-.128c1.522-.7 2.243-.925 4.438-2.7 2.194-1.775 3.323-4.29 3.53-6.672.003-.028.06-.08.107-.08 1.059.015 1.92.848 1.92 1.856v.28c0 1.733-.475 2.83-1.468 4.312h-1.393c-.483 0-.875.373-.875.834 0 .46.392.833.875.833h8.405c.548 0 .993.424.993.946 0 .52-.445.945-.993.945h-1.867c-.484 0-.876.373-.876.833 0 .46.392.834.876.834z"/>
</svg>
